HIERARCHY
ROOT joint_0
{
	OFFSET 0.000000 0.000000 0.000000
	CHANNELS 6 Xposition Yposition Zposition Zrotation Yrotation Xrotation 
	JOINT joint_1
	{
		OFFSET 6.590088 -1.122192 114.019043
		CHANNELS 3 Zrotation Yrotation Xrotation
		JOINT joint_2
		{
			OFFSET -5.956055 -0.820435 104.151001
			CHANNELS 3 Zrotation Yrotation Xrotation
			JOINT joint_3
			{
				OFFSET -7.343506 -1.103027 103.942993
				CHANNELS 3 Zrotation Yrotation Xrotation
				JOINT joint_4
				{
					OFFSET 3.109131 -2.857056 147.715942
					CHANNELS 3 Zrotation Yrotation Xrotation
					JOINT joint_5
					{
						OFFSET 28.592285 -2.852295 87.703979
						CHANNELS 3 Zrotation Yrotation Xrotation
						End Site
						{
							OFFSET 0.000000 0.000000 0.000000
						}
					}
				}
				JOINT joint_6
				{
					OFFSET -0.332520 -33.687378 82.401978
					CHANNELS 3 Zrotation Yrotation Xrotation
					JOINT joint_7
					{
						OFFSET -7.397461 -168.719177 -22.750977
						CHANNELS 3 Zrotation Yrotation Xrotation
						JOINT joint_8
						{
							OFFSET 17.065918 -24.903137 -272.721069
							CHANNELS 3 Zrotation Yrotation Xrotation
							JOINT joint_9
							{
								OFFSET 33.311279 -37.031616 -278.192993
								CHANNELS 3 Zrotation Yrotation Xrotation
								End Site
								{
									OFFSET 0.000000 0.000000 0.000000
								}
							}
						}
					}
				}
				JOINT joint_10
				{
					OFFSET 3.914307 30.461670 83.552979
					CHANNELS 3 Zrotation Yrotation Xrotation
					JOINT joint_11
					{
						OFFSET 15.543701 166.845459 -30.963013
						CHANNELS 3 Zrotation Yrotation Xrotation
						JOINT joint_12
						{
							OFFSET 35.734863 35.017700 -269.786011
							CHANNELS 3 Zrotation Yrotation Xrotation
							JOINT joint_13
							{
								OFFSET 70.506592 13.977783 -273.320007
								CHANNELS 3 Zrotation Yrotation Xrotation
								End Site
								{
									OFFSET 0.000000 0.000000 0.000000
								}
							}
						}
					}
				}
			}
		}
	}
	JOINT joint_14
	{
		OFFSET -0.314697 -95.093994 -116.004028
		CHANNELS 3 Zrotation Yrotation Xrotation
		JOINT joint_15
		{
			OFFSET -22.490723 2.017883 -455.510986
			CHANNELS 3 Zrotation Yrotation Xrotation
			JOINT joint_16
			{
				OFFSET -46.427490 7.144104 -496.360985
				CHANNELS 3 Zrotation Yrotation Xrotation
				JOINT joint_17
				{
					OFFSET 209.055420 -37.122803 -85.191002
					CHANNELS 3 Zrotation Yrotation Xrotation
					End Site
					{
						OFFSET 0.000000 0.000000 0.000000
					}
				}
			}
		}
	}
	JOINT joint_18
	{
		OFFSET 5.652832 94.642578 -116.244019
		CHANNELS 3 Zrotation Yrotation Xrotation
		JOINT joint_19
		{
			OFFSET -12.379883 -7.332642 -455.843994
			CHANNELS 3 Zrotation Yrotation Xrotation
			JOINT joint_20
			{
				OFFSET -45.227051 -8.172241 -496.457985
				CHANNELS 3 Zrotation Yrotation Xrotation
				JOINT joint_21
				{
					OFFSET 210.522949 -11.530396 -88.809004
					CHANNELS 3 Zrotation Yrotation Xrotation
					End Site
					{
						OFFSET 0.000000 0.000000 0.000000
					}
				}
			}
		}
	}
}
MOTION
Frames: 6
Frame Time: 0.016667
-2486.283447 912.869141 1181.687012 6.130870 -2.417037 -0.378367 -0.146931 2.551880 0.796139 -0.192811 -0.452831 -0.167956 -0.157603 0.526329 0.143475 -0.097137 2.829768 0.503620 0.000000 0.000000 0.000000 1.056963 0.502408 0.335638 -0.538282 0.609660 2.712138 -1.511209 6.840091 -3.799719 0.000000 0.000000 0.000000 2.550756 0.734883 0.188839 0.068053 0.456258 -1.762104 2.708692 8.185710 10.402333 0.000000 0.000000 0.000000 -2.157638 0.857090 1.116084 -2.058891 1.562047 -0.694123 -2.070081 1.492163 -0.576872 0.000000 0.000000 0.000000 1.280748 -0.642402 5.211937 1.426069 2.880727 0.079751 1.432094 0.677720 0.633941 0.000000 0.000000 0.000000 
-2486.590088 913.100342 1181.639038 6.129339 -2.469367 -0.370695 -0.153563 2.597315 0.788012 -0.199662 -0.466135 -0.167671 -0.164076 0.542462 0.144627 -0.097319 2.906149 0.508735 0.000000 0.000000 0.000000 1.031796 0.484176 0.445656 -0.535246 0.597504 2.601020 -1.494642 6.798837 -3.733719 0.000000 0.000000 0.000000 2.548704 0.747340 0.181269 0.072086 0.468018 -1.751167 2.711675 8.187214 10.412277 0.000000 0.000000 0.000000 -2.155737 0.841483 1.108376 -2.055465 1.662869 -0.728645 -2.071014 1.486252 -0.578276 0.000000 0.000000 0.000000 1.276167 -0.599249 5.116533 1.413826 2.877727 0.207361 1.432196 0.682361 0.634226 0.000000 0.000000 0.000000 
-2486.927490 913.354309 1181.603027 6.129557 -2.517019 -0.365557 -0.161771 2.638897 0.782084 -0.208156 -0.475903 -0.167149 -0.172330 0.554441 0.145535 -0.097574 2.980025 0.514016 0.000000 0.000000 0.000000 1.011191 0.468225 0.550442 -0.532798 0.587596 2.501034 -1.480365 6.770031 -3.669017 0.000000 0.000000 0.000000 2.544482 0.758528 0.176271 0.074935 0.479539 -1.746437 2.715960 8.196582 10.426903 0.000000 0.000000 0.000000 -2.154630 0.824750 1.100082 -2.053113 1.754011 -0.758542 -2.072442 1.482646 -0.579473 0.000000 0.000000 0.000000 1.272891 -0.562073 5.029282 1.403664 2.873039 0.321593 1.433047 0.688210 0.634894 0.000000 0.000000 0.000000 
-2487.298828 913.632690 1181.573975 6.123144 -2.562070 -0.361788 -0.169231 2.682165 0.778925 -0.216054 -0.486735 -0.167263 -0.179878 0.567954 0.146862 -0.097761 3.043022 0.518553 0.000000 0.000000 0.000000 0.998622 0.452308 0.647955 -0.530721 0.577929 2.414737 -1.468323 6.745895 -3.614745 0.000000 0.000000 0.000000 2.542329 0.764726 0.172010 0.077226 0.485642 -1.741475 2.717597 8.199547 10.428697 0.000000 0.000000 0.000000 -2.151902 0.803842 1.088693 -2.049572 1.844304 -0.782689 -2.072188 1.475590 -0.580599 0.000000 0.000000 0.000000 1.274131 -0.531304 4.947689 1.398428 2.874379 0.424278 1.437933 0.687361 0.636884 0.000000 0.000000 0.000000 
-2487.716064 913.934631 1181.553955 6.103859 -2.605234 -0.359529 -0.173952 2.731071 0.779714 -0.221429 -0.498268 -0.168674 -0.184771 0.581088 0.148675 -0.098372 3.093205 0.523776 0.000000 0.000000 0.000000 0.995085 0.436232 0.736667 -0.529132 0.568166 2.347137 -1.459325 6.724970 -3.578920 0.000000 0.000000 0.000000 2.544083 0.765763 0.169464 0.079962 0.485852 -1.733815 2.714317 8.183230 10.407996 0.000000 0.000000 0.000000 -2.146338 0.777816 1.073330 -2.043759 1.935176 -0.799153 -2.069061 1.463455 -0.581456 0.000000 0.000000 0.000000 1.281532 -0.507094 4.872550 1.399747 2.884092 0.514401 1.448417 0.677966 0.640746 0.000000 0.000000 0.000000 
-2488.168457 914.260010 1181.541016 6.077916 -2.645634 -0.358336 -0.177840 2.782087 0.782160 -0.226007 -0.511398 -0.169690 -0.188843 0.595432 0.150678 -0.098735 3.132740 0.527770 0.000000 0.000000 0.000000 0.999326 0.420365 0.818255 -0.527883 0.558803 2.292783 -1.452453 6.708405 -3.553262 0.000000 0.000000 0.000000 2.547785 0.761808 0.167335 0.082108 0.480574 -1.725246 2.708220 8.160692 10.373872 0.000000 0.000000 0.000000 -2.139420 0.747124 1.054666 -2.037028 2.025743 -0.809824 -2.064524 1.447814 -0.582363 0.000000 0.000000 0.000000 1.293395 -0.489719 4.802828 1.405908 2.900169 0.592951 1.462823 0.662115 0.645896 0.000000 0.000000 0.000000 
